<?xml version="1.0" standalone="no"?>
<!DOCTYPE svg PUBLIC "-//W3C//DTD SVG 20010904//EN"
 "http://www.w3.org/TR/2001/REC-SVG-20010904/DTD/svg10.dtd">
<svg version="1.0" xmlns="http://www.w3.org/2000/svg"
 width="587.000000pt" height="587.000000pt" viewBox="0 0 587.000000 587.000000"
 preserveAspectRatio="xMidYMid meet">
<metadata>
Created by potrace 1.11, written by Peter Selinger 2001-2013
</metadata>
<g transform="translate(0.000000,587.000000) scale(0.100000,-0.100000)"
fill="#000000" stroke="none">
<path d="M3800 5850 c9 -16 8 -20 -5 -20 -8 0 -15 5 -15 10 0 6 -4 10 -10 10
-5 0 -10 -7 -10 -16 0 -8 5 -12 10 -9 6 3 13 -1 16 -10 4 -10 -6 -28 -29 -50
-43 -41 -54 -45 -31 -9 13 19 14 28 5 37 -8 8 -11 7 -11 -5 0 -11 -7 -14 -25
-10 -14 2 -25 0 -25 -5 0 -5 -14 -17 -32 -28 -29 -17 -30 -19 -12 -26 18 -6
18 -7 2 -14 -19 -8 -25 -35 -8 -35 6 0 10 7 10 15 0 8 5 15 11 15 6 0 9 6 6
14 -3 8 1 20 9 26 12 10 14 8 14 -14 0 -14 5 -26 11 -26 5 0 8 -4 4 -10 -3 -5
-11 -8 -18 -6 -7 1 -9 1 -4 -1 13 -8 8 -23 -8 -23 -8 0 -15 -7 -15 -15 0 -8 6
-15 14 -15 21 0 26 -37 10 -68 -10 -19 -14 -22 -14 -9 0 9 -5 17 -11 17 -6 0
-9 -7 -5 -15 4 -11 -2 -14 -24 -11 -16 2 -36 9 -44 15 -8 7 -17 8 -20 3 -3 -6
6 -18 21 -27 25 -17 25 -19 9 -31 -10 -7 -24 -10 -32 -7 -8 3 -14 0 -14 -6 0
-6 5 -11 10 -11 6 0 9 -16 6 -37 -2 -21 0 -43 5 -50 7 -7 6 -14 -1 -18 -5 -3
-10 -15 -10 -26 0 -10 -4 -19 -10 -19 -5 0 -10 -7 -10 -15 0 -8 -6 -15 -12
-15 -10 0 -10 -2 -1 -8 17 -11 29 -64 13 -60 -7 2 -15 -3 -18 -11 -3 -8 0 -11
7 -7 6 4 11 2 11 -3 0 -6 5 -11 10 -11 6 0 10 6 10 14 0 8 8 13 18 12 9 -2 21
2 25 8 6 8 10 7 14 -1 6 -17 23 -16 23 1 0 16 64 86 79 86 13 0 14 -12 3 -26
-24 -27 -79 -193 -86 -256 -1 -10 -12 -29 -25 -44 -18 -21 -41 -65 -41 -79 0
-3 6 -2 14 1 8 3 16 -3 19 -15 4 -15 10 -19 24 -15 10 3 14 2 8 -3 -15 -12
-17 -31 -5 -53 11 -21 69 -22 95 0 29 24 15 0 -17 -30 -18 -17 -49 -45 -68
-63 -19 -18 -35 -42 -35 -53 0 -10 -7 -19 -15 -19 -38 -1 -102 -18 -106 -28
-2 -7 -18 -13 -35 -14 -17 -1 -37 -8 -45 -14 -19 -15 -18 -39 1 -39 8 0 15 7
15 16 0 14 2 14 15 0 8 -8 15 -22 15 -31 0 -9 4 -14 9 -11 5 3 12 -1 15 -10 3
-8 11 -12 16 -9 6 4 9 2 8 -3 -2 -5 9 -21 25 -35 33 -32 35 -46 5 -45 -13 1
-38 1 -57 0 -29 -2 -32 -4 -21 -17 11 -13 8 -15 -21 -13 -19 2 -38 8 -44 14
-5 7 -23 14 -38 17 -23 4 -27 1 -21 -12 17 -43 16 -50 -17 -71 -19 -11 -53
-25 -75 -31 -39 -10 -41 -13 -35 -37 7 -27 49 -46 77 -35 10 4 17 -2 21 -16 5
-19 12 -21 74 -21 37 0 70 -4 73 -8 2 -4 7 -33 10 -65 5 -57 5 -57 -27 -71
-27 -11 -33 -11 -35 1 -5 18 -22 17 -22 -1 0 -22 -29 -46 -46 -39 -9 3 -19 2
-23 -3 -12 -18 -96 -68 -108 -66 -7 2 -13 -2 -13 -8 0 -6 -4 -8 -10 -5 -14 9
-71 -23 -103 -57 -23 -25 -32 -29 -60 -23 -17 4 -35 13 -39 19 -4 6 -6 -4 -4
-22 2 -18 6 -36 10 -39 9 -9 109 15 134 33 12 8 22 22 22 30 0 8 7 14 15 14 8
0 15 4 15 10 0 5 -8 7 -17 3 -15 -5 -16 -4 -5 8 7 8 23 15 35 16 12 1 42 7 67
13 27 7 71 9 113 5 58 -6 66 -9 56 -22 -7 -8 -8 -13 -3 -12 21 4 24 -2 8 -18
-15 -16 -17 -16 -30 2 -11 15 -17 16 -26 7 -9 -9 -9 -12 0 -12 6 0 9 -6 6 -14
-3 -8 3 -16 16 -19 14 -4 19 -10 15 -18 -5 -7 -3 -10 6 -7 8 2 15 17 17 31 2
15 9 27 17 27 8 0 11 -7 8 -20 -4 -15 0 -20 15 -20 11 0 22 -6 25 -12 3 -10 7
-10 20 1 15 12 17 11 17 -8 0 -14 -8 -22 -25 -26 -14 -3 -36 -7 -49 -10 -12
-2 -26 -2 -30 2 -16 16 -52 12 -63 -7 -11 -16 -10 -18 4 -13 11 4 14 3 9 -5
-4 -7 -27 -12 -51 -12 -38 0 -43 -2 -38 -20 4 -16 2 -19 -11 -14 -10 4 -16 1
-16 -9 0 -15 -62 -29 -78 -17 -4 3 1 -3 11 -12 19 -18 19 -18 -6 -18 -24 0
-39 -12 -43 -35 -8 -47 -30 -106 -50 -132 -22 -29 -30 -33 -75 -33 -37 0 -49
-4 -49 -15 0 -8 6 -14 13 -13 7 2 13 -9 15 -24 2 -16 9 -28 18 -28 8 0 14 -6
14 -14 0 -8 10 -22 22 -30 17 -12 19 -19 10 -28 -9 -9 -16 -5 -32 15 -12 15
-25 27 -30 27 -12 0 -1 -30 18 -52 14 -17 13 -18 -16 -18 -27 0 -32 4 -32 24
0 35 -41 23 -60 -18 -13 -27 -14 -39 -4 -73 11 -37 10 -43 -6 -58 -10 -9 -16
-23 -14 -30 3 -7 1 -16 -5 -20 -6 -3 -11 -17 -11 -30 0 -14 -7 -26 -19 -30
-10 -3 -21 -19 -25 -35 -11 -56 -69 -30 -84 37 -5 22 -14 48 -21 59 -10 16
-11 7 -9 -47 3 -55 8 -72 32 -100 l29 -34 -29 -3 c-56 -7 -51 -23 5 -18 38 3
61 0 75 -10 11 -8 35 -14 53 -14 17 0 34 -4 37 -8 3 -5 -19 -7 -49 -4 -54 4
-66 -3 -43 -26 9 -9 3 -12 -31 -12 -24 0 -40 4 -36 10 3 5 12 7 20 3 9 -3 15
1 15 10 0 13 -13 15 -82 11 -45 -2 -130 -7 -188 -10 -58 -3 -118 -7 -135 -8
-27 -3 -332 -17 -417 -20 l-33 -1 -3 70 c-1 39 -6 106 -11 150 l-8 80 -3 -125
c-1 -69 -3 -134 -4 -145 -1 -18 -9 -20 -63 -22 -35 -1 -63 3 -63 8 0 11 10 15
64 24 67 11 29 19 -97 20 l-122 0 -9 105 c-5 58 -12 96 -14 85 -2 -11 -10 -24
-18 -28 -19 -11 -18 -56 1 -63 10 -4 15 -21 15 -54 0 -45 -2 -48 -27 -51 -53
-7 -399 -2 -412 6 -7 4 -56 7 -107 6 -55 -1 -94 2 -94 7 0 6 -33 9 -75 8 -79
-2 -95 7 -75 44 16 30 12 40 -16 40 -25 0 -119 60 -126 81 -2 6 -14 6 -34 -1
-36 -13 -84 1 -84 24 0 29 -21 27 -60 -7 -22 -18 -55 -38 -75 -44 -30 -10 -35
-9 -35 5 -1 15 -2 15 -14 -1 -8 -10 -20 -15 -29 -11 -8 3 -18 1 -21 -5 -5 -8
-43 5 -76 27 -3 2 3 10 13 17 12 8 14 15 8 20 -6 3 -11 22 -11 41 0 19 -4 34
-10 34 -6 0 -10 -27 -10 -60 l0 -60 -32 -1 c-18 -1 -63 -2 -100 -3 l-68 -1 0
-1097 c0 -720 3 -1099 10 -1103 5 -3 10 1 10 9 0 9 7 16 15 16 9 0 15 9 15 24
0 14 4 27 9 31 15 8 41 66 41 88 0 27 70 87 90 77 28 -14 91 -21 103 -12 15
12 61 -4 52 -17 -3 -6 3 -14 13 -20 21 -11 46 -83 37 -110 -4 -14 1 -20 25
-24 55 -11 35 -51 -42 -83 -21 -9 -38 -22 -38 -30 0 -7 -10 -20 -22 -29 -17
-11 -20 -18 -11 -23 7 -4 11 -19 8 -32 -2 -13 0 -29 6 -37 7 -7 9 -26 6 -42
-4 -16 -2 -43 3 -61 18 -64 -7 -75 -202 -86 l-128 -7 0 -253 0 -254 2935 0
2935 0 0 1190 0 1190 -62 1 c-57 1 -60 2 -28 10 19 5 47 6 63 3 25 -5 27 -3
27 25 0 20 -5 31 -14 31 -8 0 -17 4 -20 9 -3 5 2 8 12 7 14 -1 17 10 20 67 l3
67 -93 0 c-206 -1 -217 0 -211 15 3 8 1 15 -5 15 -5 0 -12 9 -15 20 -3 11 -1
20 4 20 5 0 9 7 9 15 0 19 9 19 31 -1 16 -14 18 -14 24 5 7 24 21 27 28 9 4
-10 6 -10 6 0 1 7 15 12 37 12 21 0 33 -4 29 -10 -3 -5 -1 -10 4 -10 6 0 11 5
11 10 0 6 19 9 43 9 39 -1 40 -2 12 -9 l-30 -8 27 -1 c15 0 30 4 33 9 3 6 17
10 31 10 l24 0 0 159 0 158 -52 6 c-29 2 -55 1 -56 -4 -2 -5 -8 -6 -14 -3 -6
4 -5 10 3 15 28 17 -3 22 -34 6 -23 -12 -48 -16 -87 -13 -30 2 -57 5 -60 6 -3
1 -9 2 -13 1 -4 -1 -10 6 -13 14 -4 8 -13 15 -21 15 -7 0 -25 10 -38 23 -22
20 -24 35 -35 177 -7 85 -14 157 -16 159 -2 2 -4 -68 -4 -156 0 -136 -2 -161
-15 -159 -8 1 -18 5 -21 9 -12 12 -34 -14 -34 -39 0 -31 -39 -54 -52 -30 -11
19 -40 22 -32 3 4 -10 -8 -14 -43 -16 -26 0 -55 -4 -64 -6 -10 -3 -19 1 -23
11 -5 13 -9 14 -21 4 -17 -14 -10 -37 13 -43 12 -3 10 -5 -6 -6 -12 0 -25 6
-28 14 -7 17 -13 18 -34 5 -11 -8 -12 -12 -3 -18 8 -5 9 -13 3 -22 -13 -21
-18 -12 -29 60 -14 88 -45 183 -49 152 l-3 -23 -20 25 c-10 13 -19 37 -19 54
0 29 -20 54 -52 65 -12 4 -18 17 -18 34 l0 28 26 -32 c28 -36 44 -43 38 -15
-2 9 -5 42 -7 72 -2 30 -8 66 -14 80 -6 14 -13 32 -16 40 -3 8 -5 -7 -4 -35 1
-27 -1 -51 -5 -52 -5 -2 -8 0 -7 3 0 7 -39 26 -85 40 -42 13 -42 28 -1 52 19
12 35 28 35 35 0 8 7 20 15 27 13 11 17 8 26 -19 6 -18 14 -30 16 -27 3 3 -1
22 -9 43 -9 21 -13 44 -11 51 6 16 30 16 36 0 3 -7 5 3 5 22 0 19 12 68 26
108 28 76 32 149 9 144 -9 -1 -13 12 -13 40 0 23 -4 55 -10 72 -5 17 -12 47
-15 67 -4 29 -11 38 -40 49 -28 11 -32 16 -24 31 5 10 9 29 9 43 0 13 6 27 13
30 17 7 -39 53 -83 67 -19 7 -57 24 -85 39 -53 29 -130 56 -260 90 -89 24
-110 36 -124 71 -7 17 -10 19 -10 7 -1 -18 -31 -26 -31 -9 0 5 -3 16 -6 25 -4
11 0 16 14 16 11 0 40 11 63 25 24 14 50 25 57 25 15 0 140 123 158 155 10 17
15 18 33 8 34 -21 38 -16 40 44 2 75 14 85 35 28 21 -54 42 -58 62 -10 7 19
21 52 29 72 12 28 18 34 25 24 6 -10 11 -3 19 25 6 21 11 45 11 53 0 24 59
125 99 168 21 24 51 59 66 78 15 20 32 34 38 32 6 -2 22 16 34 39 22 41 31 70
15 49 -25 -33 -83 -76 -108 -81 l-29 -5 36 38 c32 33 79 110 79 129 0 3 -8 -4
-18 -16 -16 -20 -19 -20 -31 -6 -11 13 -8 25 18 76 17 34 29 66 26 71 -4 5 -1
9 4 9 6 0 11 -12 11 -27 1 -23 2 -25 10 -11 12 19 8 62 -8 102 -8 17 -10 47
-6 77 7 50 -6 98 -34 132 -14 16 -56 17 -624 17 -606 0 -609 0 -598 -20z m-90
-230 c0 -5 -4 -10 -10 -10 -5 0 -10 5 -10 10 0 6 5 10 10 10 6 0 10 -4 10 -10z
m1260 -115 c-7 -8 -17 -15 -23 -15 -5 0 -2 9 8 20 21 23 35 19 15 -5z m-578
-381 c20 -9 50 -35 65 -57 26 -37 28 -49 30 -139 2 -80 -1 -105 -15 -126 -46
-73 -107 -105 -200 -105 -66 -1 -132 21 -132 43 0 6 -6 10 -14 10 -7 0 -19 7
-26 15 -10 12 -10 15 1 15 9 0 10 3 3 8 -14 9 -34 68 -34 98 0 13 5 46 11 74
12 58 82 155 105 146 7 -3 13 0 11 6 -3 18 62 36 113 32 25 -2 62 -11 82 -20z
m468 6 c0 -16 -44 -99 -53 -100 -4 0 0 17 9 38 9 20 18 45 21 55 6 18 23 24
23 7z m-1220 -140 c0 -5 -4 -10 -9 -10 -6 0 -13 5 -16 10 -3 6 1 10 9 10 9 0
16 -4 16 -10z m35 -30 c-3 -5 -10 -10 -16 -10 -5 0 -9 5 -9 10 0 6 7 10 16 10
8 0 12 -4 9 -10z m79 -65 c-7 -16 -24 -21 -24 -6 0 8 7 13 27 20 1 1 0 -6 -3
-14z m106 -3 c0 -5 13 -22 30 -38 16 -16 29 -36 29 -44 0 -10 -2 -11 -6 -2 -9
22 -24 13 -39 -23 -13 -31 -12 -37 6 -70 24 -43 24 -45 5 -45 -9 0 -12 -6 -9
-15 4 -8 2 -15 -4 -15 -20 0 -29 26 -31 85 -1 33 -2 67 -3 75 -3 45 3 100 12
100 6 0 10 -4 10 -8z m175 -78 c14 -15 22 -30 19 -35 -3 -5 0 -9 6 -9 6 0 8
11 5 28 -6 25 -5 26 8 9 8 -10 14 -25 13 -34 -2 -8 17 -35 41 -58 42 -42 98
-65 157 -65 16 0 26 -6 26 -14 0 -9 -10 -14 -27 -14 -16 1 -36 -2 -46 -7 -21
-9 -89 15 -138 48 -28 19 -54 60 -101 160 -12 26 9 21 37 -9z m-415 -114 c0
-11 -4 -20 -9 -20 -5 0 -7 9 -4 20 3 11 7 20 9 20 2 0 4 -9 4 -20z m130 5 c0
-9 9 -15 24 -15 14 0 28 -5 32 -11 5 -9 -1 -10 -22 -4 -16 4 -47 11 -69 15
-22 4 -30 8 -18 9 12 0 25 6 28 11 9 15 25 12 25 -5z m-89 -307 c16 -25 -21
-49 -67 -45 -26 3 -44 1 -47 -6 -4 -12 -82 7 -127 30 l-25 13 35 2 c19 1 56 0
83 -1 36 -2 47 1 47 12 0 9 6 17 13 20 19 6 79 -10 88 -25z m-96 -187 c72 -19
71 -26 -7 -49 -92 -28 -96 -27 -108 4 -16 40 -12 52 18 57 30 4 39 3 97 -12z
m-35 -192 c0 -5 -7 -9 -15 -9 -15 0 -20 12 -9 23 8 8 24 -1 24 -14z m-85 1
c27 -7 25 -8 -17 -9 -27 0 -48 4 -48 9 0 11 21 11 65 0z m1490 -206 c-20 -53
-32 -63 -33 -26 0 36 40 114 46 88 2 -10 -4 -38 -13 -62z m-1938 40 c-3 -3
-12 -4 -19 -1 -8 3 -5 6 6 6 11 1 17 -2 13 -5z m1548 -249 c142 -21 137 -13
133 -222 -2 -95 -6 -173 -10 -173 -5 0 -8 22 -8 48 0 27 -6 57 -15 68 -8 10
-15 29 -15 41 0 12 -4 23 -10 25 -5 2 -11 14 -12 28 -2 19 -11 27 -33 32 -16
4 -31 2 -33 -3 -8 -22 -24 -7 -19 18 l5 27 -19 -25 c-10 -14 -16 -32 -13 -43
4 -11 2 -16 -4 -12 -6 3 -13 0 -16 -6 -3 -7 -4 -4 -3 8 1 11 -3 27 -10 35 -16
20 -24 127 -10 133 7 2 4 5 -5 5 -17 1 -26 31 -10 31 5 0 53 -7 107 -15z m35
-186 c0 -6 -4 -7 -10 -4 -5 3 -10 11 -10 16 0 6 5 7 10 4 6 -3 10 -11 10 -16z
m-35 1 c3 -5 1 -10 -4 -10 -6 0 -11 5 -11 10 0 6 2 10 4 10 3 0 8 -4 11 -10z
m295 -10 c23 -23 24 -29 10 -64 -13 -35 -27 -33 -51 9 -12 19 -27 35 -35 35
-17 0 -19 26 -1 33 27 11 58 6 77 -13z m-245 -20 c3 -5 -3 -10 -15 -10 -12 0
-18 5 -15 10 3 6 10 10 15 10 5 0 12 -4 15 -10z m322 -22 c-3 -7 -5 -2 -5 12
0 14 2 19 5 13 2 -7 2 -19 0 -25z m-427 -18 c0 -11 -2 -20 -4 -20 -2 0 -6 9
-9 20 -3 11 -1 20 4 20 5 0 9 -9 9 -20z m-1435 -40 c3 -5 1 -10 -4 -10 -6 0
-11 5 -11 10 0 6 2 10 4 10 3 0 8 -4 11 -10z m1415 0 c0 -5 -4 -10 -10 -10 -5
0 -10 5 -10 10 0 6 5 10 10 10 6 0 10 -4 10 -10z m-1301 -70 c5 0 11 -18 15
-41 6 -36 1 -51 -32 -113 -21 -39 -42 -89 -45 -111 -4 -22 -18 -67 -32 -100
-27 -65 -32 -124 -13 -154 13 -21 2 -102 -27 -206 -32 -116 -37 -141 -41 -223
-3 -48 -7 -103 -9 -122 -15 -136 -22 -228 -24 -302 -1 -43 -5 -58 -15 -58 -18
0 -22 21 -42 225 -14 146 -15 313 -4 398 11 85 15 96 34 100 21 4 21 4 -1 12
-24 8 -24 9 -8 175 2 30 7 90 10 134 3 43 11 90 19 105 21 40 61 130 86 191
12 30 26 63 31 72 5 10 9 24 9 31 0 31 23 37 52 12 16 -14 33 -25 37 -25z
m507 3 c-3 -8 -6 -23 -6 -34 0 -10 -7 -19 -15 -19 -8 0 -15 -5 -15 -10 0 -6
-6 -10 -12 -9 -27 3 -37 -2 -32 -15 3 -8 12 -12 20 -9 8 3 14 0 14 -6 0 -6 -4
-11 -10 -11 -5 0 -10 -6 -10 -14 0 -8 -24 -39 -54 -70 -78 -82 -116 -128 -116
-141 0 -6 -11 -22 -25 -35 -22 -21 -28 -22 -49 -11 -13 8 -29 11 -34 7 -6 -3
-13 -2 -17 4 -3 5 -11 10 -17 10 -7 0 -6 -5 2 -15 8 -9 21 -13 36 -9 24 6 34
-9 14 -21 -5 -3 -10 -10 -10 -16 0 -5 5 -9 10 -9 6 0 10 7 10 16 0 8 5 12 10
9 11 -7 -3 -39 -27 -63 -7 -7 -16 -25 -20 -40 -3 -15 -25 -54 -49 -88 l-42
-62 -22 25 -23 26 -19 -24 c-17 -21 -19 -21 -14 -4 3 11 8 32 12 48 3 15 10
27 15 27 5 0 6 7 3 14 -3 8 1 28 9 43 9 15 18 35 21 45 4 13 11 15 43 8 42
-10 65 2 45 22 -9 9 -12 8 -14 -8 0 -10 -4 1 -7 26 -5 34 -3 48 9 58 9 8 11
15 5 20 -6 4 -9 16 -9 27 1 11 2 26 3 33 1 7 5 11 10 8 5 -3 11 1 14 8 3 8 1
17 -6 19 -9 3 -9 8 1 18 7 8 12 9 12 2 0 -6 9 -9 20 -6 19 5 59 74 61 104 0 8
5 3 10 -10 7 -18 12 -22 21 -13 9 9 9 18 0 36 -11 24 0 47 15 32 4 -3 1 -6 -6
-6 -7 0 -10 -4 -7 -8 9 -14 63 -12 76 3 7 8 18 15 26 15 7 0 18 9 24 21 7 13
17 18 27 14 9 -3 20 0 25 7 8 10 11 10 15 1 9 -23 23 -13 17 11 -3 14 -3 29 0
35 10 15 38 1 32 -16z m24 -13 c0 -5 -4 -10 -10 -10 -5 0 -10 5 -10 10 0 6 5
10 10 10 6 0 10 -4 10 -10z m200 -80 c0 -5 -5 -10 -11 -10 -5 0 -7 5 -4 10 3
6 8 10 11 10 2 0 4 -4 4 -10z m1111 -26 c4 -16 7 -56 6 -89 0 -33 -2 -49 -4
-37 -3 18 -10 23 -24 19 -14 -4 -19 0 -19 16 0 12 -3 45 -6 73 -6 49 -5 51 17
49 18 -1 26 -9 30 -31z m-2071 -15 c0 -6 -4 -7 -10 -4 -5 3 -10 11 -10 16 0 6
5 7 10 4 6 -3 10 -11 10 -16z m1737 -21 c-3 -7 -5 -2 -5 12 0 14 2 19 5 13 2
-7 2 -19 0 -25z m-954 6 c3 -3 -2 -14 -11 -24 -38 -41 -43 -52 -38 -66 3 -9 1
-12 -4 -9 -6 3 -10 2 -10 -4 0 -5 5 -13 11 -16 5 -4 15 -18 20 -32 5 -14 12
-23 15 -20 6 6 17 -3 42 -35 7 -9 15 -41 18 -70 2 -29 1 -47 -2 -40 -8 17 -20
15 -57 -10 -18 -13 -34 -24 -36 -25 -2 -2 -1 -6 2 -10 4 -3 18 0 32 7 32 17
40 8 28 -32 -6 -18 -11 -25 -12 -15 -1 9 -8 17 -17 17 -10 0 -12 -5 -7 -12 11
-19 3 -61 -15 -76 -16 -13 -16 -13 0 -9 10 4 18 -1 21 -13 5 -20 -12 -23 -25
-5 -4 6 -8 0 -8 -12 0 -13 5 -23 10 -23 6 0 10 -5 10 -10 0 -7 -6 -7 -19 0
-16 8 -21 5 -32 -19 -9 -20 -25 -32 -51 -40 -40 -12 -59 -30 -30 -27 9 0 16
-5 14 -12 -2 -14 43 -108 55 -114 4 -1 16 -18 26 -35 l18 -33 -30 0 c-24 0
-31 4 -31 20 0 13 -5 18 -15 14 -8 -4 -15 -2 -15 3 0 5 -15 9 -34 9 -19 -1
-32 -4 -30 -7 3 -6 -24 -14 -76 -23 -3 -1 -11 -5 -19 -10 -11 -7 -11 -10 0
-17 10 -6 8 -9 -8 -9 -14 0 -23 -6 -23 -16 0 -10 -6 -14 -14 -11 -14 6 -26
-11 -33 -48 -2 -10 -8 -22 -15 -26 -6 -4 -10 -20 -10 -35 0 -16 -4 -32 -9 -35
-9 -5 -12 -35 -7 -79 2 -16 -2 -24 -9 -23 -15 3 -17 -13 -3 -22 17 -10 11 -21
-16 -34 -15 -6 -27 -10 -28 -9 -1 2 -8 22 -16 45 -15 48 -4 99 51 238 44 113
76 224 89 308 13 88 8 111 -11 48 -7 -23 -18 -46 -26 -52 -7 -6 -14 -23 -14
-38 -2 -23 -2 -23 -6 -4 -2 13 -15 31 -27 41 -13 9 -22 24 -20 32 6 36 66 150
83 160 27 14 31 13 31 -7 0 -15 2 -14 14 3 8 10 11 23 7 27 -12 12 43 119 86
169 21 24 49 59 63 77 29 38 47 56 110 105 47 37 53 40 63 30z m804 -76 c-3
-8 -6 -5 -6 6 -1 11 2 17 5 13 3 -3 4 -12 1 -19z m-1892 -149 c11 -18 0 -20
-93 -23 -49 -2 -98 -8 -108 -14 -18 -11 -17 -12 6 -13 37 -3 169 2 295 10 124
8 155 5 155 -15 0 -15 -4 -16 -90 -19 -148 -6 -271 -15 -325 -25 -33 -5 -62
-10 -64 -10 -2 0 -1 -7 3 -15 3 -8 -3 -19 -14 -25 -27 -14 -40 -12 -34 5 4 8
13 15 22 15 8 0 12 3 8 8 -10 9 -39 11 -211 10 -239 -1 -275 1 -275 14 0 13
17 16 145 23 239 12 294 16 322 24 28 8 -242 5 -389 -4 -43 -2 -80 0 -83 4 -8
15 32 19 215 26 96 4 191 8 211 10 20 2 52 0 72 -5 23 -5 37 -4 39 2 2 6 42
14 88 18 47 4 88 8 92 9 4 0 10 -4 13 -10z m50 1 c-3 -5 -12 -10 -18 -10 -7 0
-6 4 3 10 19 12 23 12 15 0z m171 -5 c-23 -17 -36 -19 -36 -6 0 5 8 12 18 14
32 9 37 6 18 -8z m-983 -40 c1 -6 -26 -11 -60 -13 -77 -4 -86 15 -10 21 65 4
68 4 70 -8z m1387 5 c0 -5 -5 -10 -11 -10 -5 0 -7 5 -4 10 3 6 8 10 11 10 2 0
4 -4 4 -10z m-2270 -10 c0 -5 -8 -10 -17 -10 -15 0 -16 2 -3 10 19 12 20 12
20 0z m890 -40 c0 -5 -13 -10 -30 -10 -16 0 -30 5 -30 10 0 6 14 10 30 10 17
0 30 -4 30 -10z m-460 -60 c4 0 6 -9 3 -20 -3 -11 0 -20 6 -20 6 0 11 -7 11
-15 0 -8 -6 -15 -14 -15 -21 0 -34 46 -26 93 1 6 4 4 7 -5 2 -10 8 -18 13 -18z
m847 -4 c5 -8 19 -19 33 -25 25 -10 17 -10 -85 -1 l-20 1 20 10 c16 7 12 8
-16 5 -20 -2 -42 0 -49 4 -9 6 3 10 35 13 28 2 55 4 62 5 7 1 16 -4 20 -12z
m-1428 -23 c0 -25 -1 -26 -9 -8 -12 27 -12 35 0 35 6 0 10 -12 9 -27z m1597 0
c-10 -10 -19 5 -10 18 6 11 8 11 12 0 2 -7 1 -15 -2 -18z m87 20 c-7 -2 -19
-2 -25 0 -7 3 -2 5 12 5 14 0 19 -2 13 -5z m-388 -23 c3 -5 1 -10 -4 -10 -6 0
-11 5 -11 10 0 6 2 10 4 10 3 0 8 -4 11 -10z m-915 -40 c0 -13 -7 -20 -20 -20
-24 0 -41 -29 -29 -51 6 -12 4 -19 -7 -23 -13 -5 -12 -10 6 -34 20 -27 19 -62
-2 -62 -5 0 -8 -8 -7 -17 5 -35 -13 -153 -25 -161 -19 -15 -307 -11 -313 4 -6
17 33 69 66 85 32 17 39 24 75 71 20 27 41 41 74 51 44 12 47 15 44 45 -4 42
12 69 47 77 16 3 37 17 47 31 23 29 44 31 44 4z m208 -67 c5 23 31 21 59 -5
47 -44 15 -61 -68 -36 -31 9 -39 16 -39 34 0 27 -20 43 -21 17 0 -16 -1 -16
-8 1 -5 12 -2 31 7 49 l14 28 26 -53 c17 -35 27 -47 30 -35z m3337 57 c3 -5 1
-10 -4 -10 -6 0 -11 5 -11 10 0 6 2 10 4 10 3 0 8 -4 11 -10z m-2847 -32 c23
3 33 0 38 -12 4 -11 13 -15 25 -11 24 8 24 0 -1 -25 -20 -20 -29 -66 -10 -55
6 3 10 -1 10 -9 0 -17 -41 -31 -65 -22 -9 3 -16 20 -17 43 l-1 38 -6 -45 c-6
-42 -8 -45 -41 -47 -19 -2 -46 1 -60 5 -14 5 -38 5 -54 1 -26 -7 -27 -6 -21
14 4 12 7 42 7 65 -1 33 2 43 12 39 7 -3 18 -1 24 5 15 15 74 25 102 18 14 -4
40 -5 58 -2z m3012 -41 c0 -1 4 -17 9 -35 7 -25 6 -35 -6 -47 -14 -14 -17 -14
-33 5 -10 12 -16 29 -13 40 3 11 0 20 -6 20 -6 0 -11 -4 -11 -8 0 -5 -7 -9
-15 -9 -26 0 -17 35 13 45 22 8 62 1 62 -11z m-1710 2 c0 -5 -8 -13 -17 -16
-25 -9 -44 -36 -31 -44 6 -4 5 -28 -2 -70 -16 -87 -19 -239 -7 -390 9 -118 8
-131 -13 -193 -12 -36 -25 -64 -30 -61 -5 3 -11 1 -14 -4 -4 -5 -2 -12 3 -16
6 -3 1 -20 -10 -40 -20 -33 -44 -41 -33 -11 3 9 -3 17 -16 21 -13 4 -19 12
-16 21 3 8 0 51 -5 97 -11 85 -7 134 26 292 8 40 28 85 37 85 5 0 8 11 8 25 0
14 -4 25 -8 25 -16 0 23 220 45 261 11 19 24 25 49 26 19 1 34 -3 34 -8z
m-1190 -34 c0 -20 -5 -25 -25 -25 -29 0 -32 12 -9 34 22 23 34 20 34 -9z
m-640 -5 c0 -5 -4 -10 -10 -10 -5 0 -10 5 -10 10 0 6 5 10 10 10 6 0 10 -4 10
-10z m2350 -15 c11 7 33 -22 25 -34 -8 -14 -45 25 -44 47 1 16 2 16 6 -1 2 -9
8 -15 13 -12z m-1713 -62 c-3 -10 -5 -4 -5 12 0 17 2 24 5 18 2 -7 2 -21 0
-30z m1246 7 c6 -24 1 -25 -19 -6 -18 18 -18 26 0 26 7 0 16 -9 19 -20z m2472
10 c-3 -5 -11 -10 -16 -10 -6 0 -7 5 -4 10 3 6 11 10 16 10 6 0 7 -4 4 -10z
m-15 -90 c0 -12 -8 -12 -35 0 -18 8 -17 9 8 9 15 1 27 -3 27 -9z m-4600 -155
c0 -19 -35 -51 -92 -82 -27 -15 -48 -29 -48 -32 0 -3 9 -20 19 -38 l20 -31
-25 -27 c-51 -55 -54 -66 -50 -160 4 -80 6 -90 26 -97 18 -7 21 -13 15 -40 -8
-39 -66 -102 -116 -128 -22 -11 -39 -29 -43 -43 -4 -19 -14 -26 -45 -31 -22
-3 -46 -4 -53 -1 -20 8 -80 142 -86 193 -4 37 -1 46 18 59 12 9 18 18 14 22
-40 28 -49 184 -14 238 12 19 12 26 0 48 -13 25 -12 28 25 63 22 20 58 51 80
68 l40 32 158 1 c131 1 157 -1 157 -14z m2290 -25 c0 -5 -4 -10 -10 -10 -5 0
-10 5 -10 10 0 6 5 10 10 10 6 0 10 -4 10 -10z m-150 -320 c0 -11 -2 -20 -4
-20 -2 0 -6 9 -9 20 -3 11 -1 20 4 20 5 0 9 -9 9 -20z m-108 -222 c-3 -72 -7
-95 -20 -105 -9 -7 -20 -13 -23 -13 -22 -1 -12 142 12 188 25 45 34 24 31 -70z
m-2489 -73 c4 -8 2 -17 -3 -20 -6 -4 -10 3 -10 14 0 25 6 27 13 6z m173 -136
c3 -6 -3 -24 -15 -40 -11 -15 -21 -32 -21 -37 0 -17 -75 -67 -100 -67 -25 0
-50 -16 -50 -33 0 -16 -44 -29 -82 -24 -28 3 -39 0 -44 -12 -8 -20 -30 -21
-37 -1 -4 8 6 24 22 38 l28 23 -19 37 c-10 20 -23 37 -28 37 -6 0 -10 14 -10
30 0 17 -4 30 -10 30 -5 0 -10 4 -10 10 0 9 62 13 282 18 54 1 89 -2 94 -9z"/>
<path d="M4310 5119 c0 -5 5 -7 10 -4 6 3 10 8 10 11 0 2 -4 4 -10 4 -5 0 -10
-5 -10 -11z"/>
<path d="M4245 5058 c-61 -35 -93 -106 -77 -173 l10 -40 1 47 c1 26 6 59 11
75 14 37 67 83 96 83 13 0 24 5 24 10 0 13 -40 12 -65 -2z"/>
<path d="M4406 4970 c9 -44 9 -56 1 -105 -7 -37 -6 -39 8 -21 20 26 20 116 0
142 -15 18 -15 17 -9 -16z"/>
<path d="M4450 4970 c0 -5 5 -10 10 -10 6 0 10 5 10 10 0 6 -4 10 -10 10 -5 0
-10 -4 -10 -10z"/>
<path d="M4250 4862 c0 -4 10 -9 22 -9 18 -2 20 0 8 7 -18 12 -30 13 -30 2z"/>
<path d="M4300 4849 c0 -5 5 -7 10 -4 6 3 10 8 10 11 0 2 -4 4 -10 4 -5 0 -10
-5 -10 -11z"/>
<path d="M4330 4840 c0 -13 20 -13 40 0 12 8 9 10 -12 10 -16 0 -28 -4 -28
-10z"/>
<path d="M4479 3513 c5 -10 10 -22 11 -28 3 -17 10 -19 10 -2 0 23 -11 47 -21
47 -6 0 -6 -7 0 -17z"/>
<path d="M4605 3510 c-3 -5 -1 -10 4 -10 6 0 11 5 11 10 0 6 -2 10 -4 10 -3 0
-8 -4 -11 -10z"/>
<path d="M4635 3510 c3 -5 8 -10 11 -10 2 0 4 5 4 10 0 6 -5 10 -11 10 -5 0
-7 -4 -4 -10z"/>
<path d="M4641 3354 c0 -11 3 -14 6 -6 3 7 2 16 -1 19 -3 4 -6 -2 -5 -13z"/>
<path d="M3570 3120 c0 -5 4 -10 9 -10 6 0 13 5 16 10 3 6 -1 10 -9 10 -9 0
-16 -4 -16 -10z"/>
<path d="M3382 3030 c-7 -11 -8 -20 -3 -20 9 0 24 30 18 36 -1 2 -8 -6 -15
-16z"/>
<path d="M3412 3020 c0 -14 2 -19 5 -12 2 6 2 18 0 25 -3 6 -5 1 -5 -13z"/>
<path d="M3470 3015 c-7 -9 -11 -17 -9 -20 3 -2 10 5 17 15 14 24 10 26 -8 5z"/>
<path d="M3535 2350 c4 -6 11 -8 16 -5 14 9 11 15 -7 15 -8 0 -12 -5 -9 -10z"/>
<path d="M3372 2320 c0 -14 2 -19 5 -12 2 6 2 18 0 25 -3 6 -5 1 -5 -13z"/>
<path d="M3455 2320 c14 -16 21 -18 32 -8 13 10 12 13 -4 19 -36 15 -47 10
-28 -11z"/>
<path d="M3366 2274 c-12 -31 -6 -38 14 -16 24 25 25 32 6 32 -8 0 -17 -7 -20
-16z"/>
<path d="M995 2410 c-3 -5 -2 -10 4 -10 5 0 13 5 16 10 3 6 2 10 -4 10 -5 0
-13 -4 -16 -10z"/>
<path d="M1440 2575 c0 -5 5 -17 10 -25 5 -8 10 -10 10 -5 0 6 -5 17 -10 25
-5 8 -10 11 -10 5z"/>
<path d="M1743 2522 c1 -19 8 -32 15 -32 9 0 11 7 7 23 -12 37 -25 43 -22 9z"/>
<path d="M4908 2544 c-9 -8 3 -44 13 -38 11 7 12 44 1 44 -5 0 -11 -3 -14 -6z"/>
<path d="M788 2119 c-22 -11 -40 -28 -43 -41 -10 -45 -10 -83 0 -84 20 -2 50
-18 63 -33 11 -14 14 -14 27 3 8 11 15 26 15 33 0 7 5 14 10 14 6 1 15 2 22 3
17 2 26 47 15 74 -8 17 -65 58 -71 51 -1 -1 -18 -10 -38 -20z"/>
<path d="M815 1841 c-4 -22 -14 -45 -23 -50 -16 -9 -16 -10 1 -16 9 -4 29 -4
45 0 15 4 21 10 15 12 -7 3 -13 19 -13 36 0 53 -17 65 -25 18z"/>
<path d="M546 1405 c-18 -14 -18 -15 8 -25 55 -21 99 -1 61 27 -24 17 -45 16
-69 -2z"/>
<path d="M3735 5820 c-3 -5 -1 -10 4 -10 6 0 11 5 11 10 0 6 -2 10 -4 10 -3 0
-8 -4 -11 -10z"/>
<path d="M5133 5590 c-6 -30 -14 -64 -18 -75 -3 -11 0 -9 7 5 7 14 16 28 21
31 5 3 7 26 5 50 l-3 44 -12 -55z"/>
<path d="M3520 5529 c0 -11 4 -18 10 -14 5 3 7 12 3 20 -7 21 -13 19 -13 -6z"/>
<path d="M3487 5533 c-4 -3 -7 -16 -7 -27 0 -19 1 -19 17 -3 12 11 14 20 7 27
-6 6 -13 7 -17 3z"/>
<path d="M5108 5305 c-10 -13 -13 -25 -8 -27 10 -3 23 -88 14 -88 -3 0 -14 5
-25 11 -12 6 -34 7 -52 3 -32 -7 -32 -7 -7 -15 14 -4 40 -7 58 -8 l34 -1 -7
-42 c-4 -28 -3 -38 3 -28 12 19 22 168 13 197 l-6 21 -17 -23z"/>
<path d="M5002 5239 c-7 -11 -11 -23 -9 -25 7 -7 29 24 25 36 -2 6 -9 1 -16
-11z"/>
<path d="M4980 5082 c-38 -21 -53 -46 -24 -40 13 2 23 -5 30 -22 l11 -25 8 28
c4 15 13 27 21 27 8 0 14 10 14 25 0 30 -14 31 -60 7z"/>
<path d="M3224 4451 c-9 -32 -8 -38 3 -34 11 4 20 73 10 73 -2 0 -8 -18 -13
-39z"/>
<path d="M3300 3874 c0 -29 -2 -30 -32 -27 -24 3 -29 2 -19 -5 8 -6 11 -17 8
-26 -8 -21 8 -29 23 -11 7 8 18 15 25 15 21 0 25 27 10 57 l-15 28 0 -31z"/>
<path d="M2800 3420 c0 -5 5 -10 10 -10 6 0 10 5 10 10 0 6 -4 10 -10 10 -5 0
-10 -4 -10 -10z"/>
<path d="M2783 3385 c-9 -25 4 -29 17 -6 7 15 7 21 0 21 -6 0 -13 -7 -17 -15z"/>
<path d="M2776 3337 c3 -10 9 -15 12 -12 3 3 0 11 -7 18 -10 9 -11 8 -5 -6z"/>
<path d="M1881 3204 c0 -11 3 -14 6 -6 3 7 2 16 -1 19 -3 4 -6 -2 -5 -13z"/>
<path d="M5220 3203 c0 -18 6 -23 25 -23 17 0 23 4 19 15 -4 8 -11 12 -16 9
-6 -4 -14 0 -19 7 -6 10 -9 8 -9 -8z"/>
<path d="M5303 3190 c-1 -11 2 -20 8 -20 5 0 9 9 9 20 0 11 -4 20 -8 20 -4 0
-8 -9 -9 -20z"/>
<path d="M5330 3191 c0 -5 5 -13 10 -16 6 -3 10 -2 10 4 0 5 -4 13 -10 16 -5
3 -10 2 -10 -4z"/>
<path d="M343 3140 c0 -25 2 -35 4 -22 2 12 2 32 0 45 -2 12 -4 2 -4 -23z"/>
<path d="M5168 3108 c5 -5 16 -8 23 -6 8 3 3 7 -10 11 -17 4 -21 3 -13 -5z"/>
<path d="M5315 3081 c-6 -11 9 -23 19 -14 9 9 7 23 -3 23 -6 0 -12 -4 -16 -9z"/>
<path d="M831 2974 c0 -11 3 -14 6 -6 3 7 2 16 -1 19 -3 4 -6 -2 -5 -13z"/>
<path d="M1368 2933 c7 -3 16 -2 19 1 4 3 -2 6 -13 5 -11 0 -14 -3 -6 -6z"/>
<path d="M2608 2933 c7 -3 16 -2 19 1 4 3 -2 6 -13 5 -11 0 -14 -3 -6 -6z"/>
<path d="M2235 2919 l-60 -6 53 -2 c52 -3 112 -3 134 -2 6 1 8 4 4 9 -9 9 -50
9 -131 1z"/>
<path d="M5680 2690 c0 -5 5 -10 11 -10 5 0 7 5 4 10 -3 6 -8 10 -11 10 -2 0
-4 -4 -4 -10z"/>
</g>
</svg>
